<svg width="16" height="16" viewBox="0 0 16 16" fill="none" xmlns="http://www.w3.org/2000/svg">
<path d="M2.38586 0.39308L8.00024 6.00743L13.5855 0.42217C13.7089 0.290854 13.8575 0.185806 14.0225 0.113326C14.1874 0.0408445 14.3653 0.00242337 14.5455 0.000366211C14.9313 0.000366211 15.3012 0.153607 15.574 0.426378C15.8468 0.699148 16 1.0691 16 1.45486C16.0034 1.63318 15.9703 1.81032 15.9028 1.9754C15.8352 2.14047 15.7347 2.29001 15.6073 2.41483L9.94928 8.00009L15.6073 13.6581C15.847 13.8926 15.9876 14.2102 16 14.5453C16 14.9311 15.8468 15.301 15.574 15.5738C15.3012 15.8466 14.9313 15.9998 14.5455 15.9998C14.3601 16.0075 14.1752 15.9766 14.0024 15.909C13.8296 15.8413 13.6728 15.7385 13.5419 15.6071L8.00024 9.99274L2.40041 15.5925C2.27751 15.7195 2.13069 15.8208 1.96843 15.8907C1.80616 15.9606 1.63165 15.9977 1.45498 15.9998C1.06923 15.9998 0.699267 15.8466 0.426495 15.5738C0.153723 15.301 0.000480798 14.9311 0.000480798 14.5453C-0.00291037 14.367 0.0301751 14.1899 0.0977069 14.0248C0.165239 13.8597 0.265792 13.7102 0.393196 13.5853L6.05121 8.00009L0.393196 2.3421C0.153473 2.10758 0.0129017 1.78999 0.000480798 1.45486C0.000480798 1.0691 0.153723 0.699148 0.426495 0.426378C0.699267 0.153607 1.06923 0.000366211 1.45498 0.000366211C1.80406 0.00472969 2.1386 0.145816 2.38586 0.39308Z" fill="#49454F"/>
</svg>
