<svg width="51" height="24" viewBox="0 0 51 24" fill="none" xmlns="http://www.w3.org/2000/svg">
<mask id="mask0_2001_699" style="mask-type:luminance" maskUnits="userSpaceOnUse" x="0" y="0" width="51" height="18">
<path d="M51 0.000793457H0.618408V17.7281H51V0.000793457Z" fill="white"/>
</mask>
<g mask="url(#mask0_2001_699)">
<path d="M12.2119 9.01562L16.844 4.13804C16.6549 3.79858 16.442 3.47439 16.2073 3.16816L12.8772 6.67471L11.8291 5.5692L15.1671 2.05497C14.7324 1.6732 14.2581 1.34441 13.7533 1.07485C12.372 0.343692 10.8432 -0.0250468 9.29738 3.98629e-05C7.75142 -0.0246756 6.22269 0.344505 4.84146 1.07613C3.54671 1.76658 2.46962 2.83719 1.74042 4.15852C0.969822 5.59179 0.582244 7.21806 0.618844 8.86463C0.582103 10.5114 0.969687 12.1379 1.74042 13.5714C2.46918 14.8919 3.54536 15.962 4.83903 16.6525C6.22043 17.3834 7.74914 17.752 9.29495 17.7267C10.8408 17.7519 12.3694 17.3834 13.7509 16.6525C14.5246 16.2396 15.2245 15.6887 15.8196 15.0243L12.2095 11.2228C11.9319 10.9299 11.776 10.533 11.776 10.1192C11.776 9.70541 11.9319 9.30851 12.2095 9.01562M10.8121 11.0878C10.6262 11.3228 10.3936 11.5119 10.1306 11.6417C9.86766 11.7714 9.5808 11.8387 9.29039 11.8387C8.99998 11.8387 8.71313 11.7714 8.45016 11.6417C8.18719 11.5119 7.95455 11.3228 7.76873 11.0878C7.32863 10.4432 7.11727 9.65647 7.17149 8.86463C7.1169 8.07043 7.33391 7.28186 7.78331 6.64145C7.96529 6.40381 8.1961 6.21275 8.45836 6.08265C8.72062 5.95255 9.00749 5.8868 9.29738 5.89036C9.58727 5.8868 9.87414 5.95255 10.1364 6.08265C10.3987 6.21275 10.6295 6.40381 10.8114 6.64145C11.2608 7.28186 11.4779 8.07043 11.4233 8.86463C11.4779 9.65884 11.2609 10.4474 10.8114 11.0878" fill="#002766"/>
<path d="M17.9769 8.86345C17.9882 7.77256 17.8283 6.68721 17.5037 5.65118L13.261 10.1187L16.7363 13.7781C16.777 13.7097 16.8171 13.6406 16.8578 13.5708C17.6286 12.1372 18.0162 10.5105 17.9794 8.86345M16.0613 10.8026C16.0613 10.6482 16.1048 10.4973 16.1862 10.3689C16.2677 10.2406 16.3834 10.1406 16.5189 10.0815C16.6543 10.0224 16.8033 10.0069 16.9471 10.0371C17.0909 10.0672 17.223 10.1415 17.3266 10.2507C17.4303 10.3598 17.5009 10.4989 17.5295 10.6503C17.5581 10.8017 17.5434 10.9586 17.4873 11.1013C17.4312 11.2439 17.3362 11.3658 17.2143 11.4516C17.0924 11.5373 16.9491 11.5831 16.8025 11.5831C16.6059 11.5831 16.4174 11.5009 16.2784 11.3545C16.1394 11.2081 16.0613 11.0096 16.0613 10.8026Z" fill="#002766"/>
<path d="M24.792 6.80824L20.5997 2.39386L20.0159 3.00867V11.8394L24.792 6.80824Z" fill="#002766"/>
<path d="M26.4786 3.40667V0.217439H20.014V0.969164C20.2863 0.849869 20.5856 0.816592 20.8755 0.873394C21.1654 0.930197 21.4333 1.07462 21.6466 1.28905L25.8388 5.70343C26.1167 5.99605 26.2728 6.39291 26.2728 6.80671C26.2728 7.2205 26.1167 7.61736 25.8388 7.90998L20.0128 14.0447V17.5097H26.4786V10.4287C26.4786 9.28398 26.7649 8.48662 27.3377 8.03665C28.1468 7.52117 29.0888 7.28516 30.0317 7.3617H31.8665V0.0946045C30.816 0.101033 29.7877 0.414186 28.8961 0.999233C27.9362 1.61063 27.1118 2.43154 26.4786 3.40667ZM21.773 16.042L20.7249 14.9384L25.1729 10.2547L26.221 11.3596L21.773 16.042Z" fill="#002766"/>
<path d="M44.5359 0.216614V9.38573C44.5713 10.0928 44.3526 10.7881 43.9235 11.3332C43.4737 11.7954 42.8702 12.0541 42.2417 12.0541C41.6132 12.0541 41.0097 11.7954 40.56 11.3332C40.122 10.7925 39.8977 10.0954 39.9335 9.38573V0.216614H33.4963V10.2443C33.4963 12.5133 34.0253 14.3124 35.0833 15.6414C35.6251 16.3067 36.3046 16.8323 37.0694 17.1779C37.8343 17.5235 38.6643 17.6798 39.4955 17.6349C40.547 17.6638 41.587 17.3989 42.5096 16.8672C43.3266 16.3836 44.021 15.7001 44.5341 14.8743V17.5114H50.9986V0.216614H44.5359Z" fill="#002766"/>
</g>
<path d="M2.50805 21.6496V20.6068H3.03116C3.41393 20.6068 3.57798 20.8083 3.57798 21.1282C3.57798 21.4481 3.41454 21.6496 3.03116 21.6496H2.50805ZM4.55616 21.1282C4.55616 20.3637 4.07011 19.7892 3.10407 19.7892H1.54565V23.9476H2.50805V22.4544H3.10468C3.28498 22.4808 3.46855 22.4663 3.64306 22.4118C3.81758 22.3573 3.979 22.2641 4.11648 22.1385C4.25397 22.0128 4.36433 21.8577 4.44017 21.6834C4.51601 21.5092 4.55556 21.3199 4.55616 21.1282ZM12.9194 23.9489H13.8818V19.7904H12.9194V21.4199H11.4217V19.7904H10.4593V23.9489H11.4217V22.2363H12.9194V23.9489ZM23.8647 21.8569C23.8716 21.5756 23.824 21.2957 23.7249 21.0344C23.6258 20.773 23.4773 20.5357 23.2883 20.3367C23.0993 20.1377 22.8739 19.9813 22.6257 19.8769C22.3775 19.7726 22.1117 19.7225 21.8446 19.7297C21.5769 19.7226 21.3107 19.7727 21.0619 19.877C20.8131 19.9812 20.587 20.1375 20.3972 20.3362C20.2073 20.535 20.0576 20.7723 19.9572 21.0336C19.8568 21.295 19.8077 21.575 19.8129 21.8569C19.8076 22.1391 19.8567 22.4194 19.957 22.6811C20.0573 22.9428 20.2069 23.1804 20.3967 23.3797C20.5865 23.5789 20.8126 23.7357 21.0614 23.8406C21.3102 23.9454 21.5766 23.9962 21.8446 23.9899C22.1119 23.9958 22.3775 23.9447 22.6255 23.8395C22.8735 23.7344 23.0986 23.5774 23.2874 23.378C23.4762 23.1786 23.6246 22.9411 23.7237 22.6796C23.8228 22.4182 23.8712 22.1383 23.8647 21.8569ZM20.7977 21.8569C20.78 21.7027 20.7941 21.5463 20.839 21.3984C20.8839 21.2505 20.9586 21.1145 21.058 20.9997C21.1574 20.8849 21.2791 20.7941 21.4148 20.7333C21.5506 20.6726 21.6971 20.6434 21.8446 20.6477C21.9915 20.6446 22.1373 20.6746 22.2722 20.7358C22.4072 20.797 22.5281 20.888 22.6268 21.0026C22.7255 21.1172 22.7997 21.2528 22.8444 21.4001C22.8891 21.5475 22.9033 21.7033 22.886 21.8569C22.9024 22.0103 22.8875 22.1657 22.8425 22.3127C22.7974 22.4596 22.7232 22.5948 22.6247 22.7092C22.5262 22.8236 22.4056 22.9146 22.2711 22.9761C22.1366 23.0376 21.9912 23.0683 21.8446 23.066C21.6974 23.0692 21.5513 23.0392 21.4161 22.9781C21.2809 22.917 21.1596 22.8261 21.0604 22.7116C20.9612 22.5971 20.8864 22.4616 20.841 22.3142C20.7956 22.1668 20.7813 22.0109 20.7977 21.8569ZM32.3738 19.7885V22.3661L30.7637 19.7892H29.8013V23.9476H30.7637V21.3803L32.3732 23.9464H33.3337V19.7879L32.3738 19.7885ZM41.8561 19.7885H39.4356V23.947H41.8555V23.1351H40.3973V22.2228H41.686V21.4442H40.398V20.603H41.8561V19.7885ZM50.7534 22.7097C50.7534 21.3169 48.8006 21.6432 48.8006 20.9184C48.7985 20.8637 48.8078 20.8093 48.8281 20.759C48.8483 20.7087 48.879 20.6637 48.9178 20.6274C48.9566 20.5911 49.0025 20.5643 49.0524 20.549C49.1022 20.5337 49.1547 20.5303 49.2059 20.539C49.263 20.5346 49.3204 20.5425 49.3746 20.5621C49.4288 20.5817 49.4787 20.6126 49.5212 20.653C49.5638 20.6934 49.5982 20.7424 49.6223 20.7971C49.6464 20.8519 49.6598 20.9112 49.6616 20.9715H50.7029C50.6635 20.1775 50.0838 19.7271 49.2229 19.7271C48.3954 19.7271 47.7824 20.1654 47.7824 20.9535C47.7708 22.4288 49.7466 22.0143 49.7466 22.7846C49.7466 23.0277 49.5644 23.1754 49.2849 23.1754C49.2226 23.1807 49.16 23.1724 49.1009 23.151C49.0419 23.1296 48.9876 23.0956 48.9417 23.0511C48.8957 23.0066 48.8589 22.9525 48.8337 22.8923C48.8085 22.8322 48.7954 22.7672 48.7952 22.7014H47.7696C47.7975 23.5427 48.4616 23.9873 49.3116 23.9873C49.4873 24.0121 49.6661 23.998 49.8363 23.9459C50.0065 23.8937 50.1645 23.8046 50.3002 23.6844C50.4358 23.5642 50.5461 23.4154 50.6239 23.2477C50.7018 23.0799 50.7454 22.8969 50.7522 22.7103L50.7534 22.7097Z" fill="#002766"/>
</svg>
